<svg xmlns="http://www.w3.org/2000/svg" xmlns:xlink="http://www.w3.org/1999/xlink" width="39" height="39" viewBox="0 0 39 39">
  <defs>
    <clipPath id="clip-account">
      <rect width="39" height="39"/>
    </clipPath>
  </defs>
  <g id="account" clip-path="url(#clip-account)">
    <rect width="39" height="39" fill="rgba(255,255,255,0)"/>
    <g id="noun_account_3845780" transform="translate(2 2.104)">
      <g id="Group_892" data-name="Group 892" transform="translate(0 0)">
        <path id="Path_2141" data-name="Path 2141" d="M20.4,3A17.4,17.4,0,0,0,8.458,33.051c.018-.165.055-.33.092-.513a5.128,5.128,0,0,1,.513-1.5c.952-1.923,3.681-5.073,11.335-5.073,7.618,0,10.365,3.113,11.354,5.073a5.2,5.2,0,0,1,.513,1.557c.037.165.055.311.073.458A17.4,17.4,0,0,0,20.4,3Zm0,20.51a7.462,7.462,0,1,1,7.472-7.453A7.462,7.462,0,0,1,20.4,23.51Zm10.054,9.358c.11.586.2,1.1.275,1.557a17.487,17.487,0,0,1-20.638,0q.11-.714.275-1.593a2.38,2.38,0,0,1,.11-.439c.44-1.227,2.307-4.6,9.925-4.6s9.486,3.333,9.925,4.6a2.264,2.264,0,0,1,.128.476ZM26.038,16.057a5.64,5.64,0,1,1-5.64-5.64A5.64,5.64,0,0,1,26.038,16.057Z" transform="translate(-2.999 -3)" fill="#ff801e"/>
      </g>
    </g>
  </g>
</svg>
