<svg xmlns="http://www.w3.org/2000/svg" xmlns:xlink="http://www.w3.org/1999/xlink" width="36" height="36" viewBox="0 0 36 36">
  <defs>
    <clipPath id="clip-card_view_1">
      <rect width="36" height="36"/>
    </clipPath>
  </defs>
  <g id="card_view_1" clip-path="url(#clip-card_view_1)">
    <rect width="36" height="36" fill="rgba(255,255,255,0)"/>
    <g id="noun_menu_161726" transform="translate(-10.684 -11.446)">
      <g id="Group_5551" data-name="Group 5551" transform="translate(16.518 17.28)">
        <path id="Path_2465" data-name="Path 2465" d="M64.788,58.566a3.438,3.438,0,0,0-3.38-3.4c-.61-.017-1.22,0-1.83,0s-1.22-.014-1.83,0A3.4,3.4,0,0,0,54.4,58.519q-.04,1.83,0,3.661a3.423,3.423,0,0,0,3.4,3.379q1.8.034,3.6,0a3.448,3.448,0,0,0,3.4-3.393C64.812,60.966,64.809,59.766,64.788,58.566Zm-1.74,3.591a1.7,1.7,0,0,1-1.755,1.673c-1.139.026-2.279.028-3.417,0a1.714,1.714,0,0,1-1.756-1.793c-.011-.57,0-1.14,0-1.709s-.012-1.14,0-1.709A1.69,1.69,0,0,1,57.814,56.9q1.769-.037,3.54,0a1.674,1.674,0,0,1,1.694,1.661C63.095,59.756,63.1,60.958,63.048,62.156Z" transform="translate(-40.473 -41.246)" fill="#ffbc4e" fill-rule="evenodd"/>
        <path id="Path_2466" data-name="Path 2466" d="M54.4,22.468c0,.589-.008,1.179,0,1.769A3.407,3.407,0,0,0,57.835,27.7q1.769.034,3.539,0a3.431,3.431,0,0,0,3.432-3.471c.013-1.159.016-2.318,0-3.478A3.461,3.461,0,0,0,61.4,17.3q-1.8-.04-3.6,0A3.436,3.436,0,0,0,54.408,20.7c-.014.589,0,1.18,0,1.769Zm1.731-1.636a1.7,1.7,0,0,1,1.7-1.786c1.178-.04,2.36-.04,3.539,0a1.693,1.693,0,0,1,1.7,1.727c.036,1.158.038,2.32,0,3.478a1.7,1.7,0,0,1-1.823,1.722q-1.647.014-3.3,0a1.713,1.713,0,0,1-1.818-1.844c-.007-.528,0-1.058,0-1.586C56.133,21.971,56.125,21.4,56.135,20.832Z" transform="translate(-40.488 -17.283)" fill="#ffbc4e" fill-rule="evenodd"/>
        <path id="Path_2467" data-name="Path 2467" d="M19.836,27.69q1.89.058,3.782,0a3.4,3.4,0,0,0,3.319-3.384c.014-.589,0-1.18,0-1.769,0-.61.011-1.22,0-1.83a3.436,3.436,0,0,0-3.376-3.4c-1.219-.03-2.441-.033-3.661,0a3.441,3.441,0,0,0-3.353,3.31q-.059,1.89,0,3.782A3.4,3.4,0,0,0,19.836,27.69Zm-1.552-7.02a1.639,1.639,0,0,1,1.609-1.616c1.238-.051,2.483-.055,3.72,0a1.66,1.66,0,0,1,1.6,1.752q.023,1.709,0,3.417a1.692,1.692,0,0,1-1.733,1.742c-.589.015-1.18,0-1.769,0-.549,0-1.1.01-1.648,0a1.687,1.687,0,0,1-1.775-1.64C18.234,23.111,18.234,21.887,18.283,20.67Z" transform="translate(-16.518 -17.28)" fill="#ffbc4e" fill-rule="evenodd"/>
        <path id="Path_2468" data-name="Path 2468" d="M26.943,58.529a3.405,3.405,0,0,0-3.329-3.376q-1.859-.046-3.721,0a3.421,3.421,0,0,0-3.344,3.37c-.027,1.22-.029,2.441,0,3.661a3.442,3.442,0,0,0,3.367,3.356q1.83.041,3.661,0a3.427,3.427,0,0,0,3.363-3.351c.017-.61,0-1.22,0-1.83h0C26.946,59.749,26.957,59.138,26.943,58.529Zm-1.728,3.51A1.7,1.7,0,0,1,23.5,63.81c-1.158.034-2.319.032-3.478,0a1.716,1.716,0,0,1-1.744-1.752q-.045-1.708,0-3.417a1.73,1.73,0,0,1,1.846-1.77c.549-.008,1.1,0,1.648,0s1.1-.009,1.648,0a1.714,1.714,0,0,1,1.8,1.809C25.229,59.8,25.231,60.92,25.215,62.039Z" transform="translate(-16.525 -41.229)" fill="#ffbc4e" fill-rule="evenodd"/>
      </g>
    </g>
  </g>
</svg>
