<svg xmlns="http://www.w3.org/2000/svg" xmlns:xlink="http://www.w3.org/1999/xlink" width="40" height="39" viewBox="0 0 40 39">
  <defs>
    <clipPath id="clip-help">
      <rect width="40" height="39"/>
    </clipPath>
  </defs>
  <g id="help" clip-path="url(#clip-help)">
    <rect width="40" height="39" fill="rgba(255,255,255,0)"/>
    <g id="noun_help_2302539" transform="translate(2.483 1.983)">
      <path id="Path_2142" data-name="Path 2142" d="M17.517,0A17.517,17.517,0,1,0,35.034,17.517,17.517,17.517,0,0,0,17.517,0Zm0,26.766-.172.035h-.35c-.105-.021-.21-.039-.312-.067a1.941,1.941,0,1,1,.841.032Zm5.605-12.721a4.33,4.33,0,0,1-1.016,1.72,11.6,11.6,0,0,1-1.752,1.44c-.35.242-.662.494-.991.746a2.1,2.1,0,0,0-.648.935c-.07.189-.151.378-.224.568a1.307,1.307,0,0,1-1.219.865,1.706,1.706,0,0,1-.886-.14,1.447,1.447,0,0,1-.8-1.083,2.487,2.487,0,0,1,.42-1.857,5.1,5.1,0,0,1,1.1-1.163c.459-.375.932-.732,1.4-1.107a3.7,3.7,0,0,0,.96-1.1,2.056,2.056,0,0,0-.245-2.277,1.892,1.892,0,0,0-1.051-.582,3.346,3.346,0,0,0-1.633.028,1.986,1.986,0,0,0-1.265,1.051c-.165.308-.308.624-.462.935a2.274,2.274,0,0,1-.452.634,1.566,1.566,0,0,1-1.188.382,1.643,1.643,0,0,1-.75-.2,1.3,1.3,0,0,1-.7-1.156,3.391,3.391,0,0,1,.7-2.144,5.4,5.4,0,0,1,2.1-1.7,6.411,6.411,0,0,1,1.993-.575l.392-.039h.7l.378.035a7.357,7.357,0,0,1,2.7.7,4.5,4.5,0,0,1,1.864,1.594,4.116,4.116,0,0,1,.634,1.815A4.015,4.015,0,0,1,23.122,14.045Z" transform="translate(0)" fill="#ff801e"/>
    </g>
  </g>
</svg>
