<svg xmlns="http://www.w3.org/2000/svg" xmlns:xlink="http://www.w3.org/1999/xlink" width="43" height="49" viewBox="0 0 43 49">
  <defs>
    <clipPath id="clip-order_processed">
      <rect width="43" height="49"/>
    </clipPath>
  </defs>
  <g id="order_processed" clip-path="url(#clip-order_processed)">
    <rect width="43" height="49" fill="rgba(255,255,255,0)"/>
    <g id="noun_History_3845540" transform="translate(1.271 2.015)">
      <g id="Layer_111" data-name="Layer 111" transform="translate(0 0)">
        <path id="Path_2407" data-name="Path 2407" d="M37.358,29.727V8.715a5.76,5.76,0,0,0-5.76-5.76H9.48a5.76,5.76,0,0,0-5.76,5.76v27a5.76,5.76,0,0,0,5.76,5.76H27.4a8.7,8.7,0,1,0,9.953-11.75Zm-25-18.478H28.718A1.17,1.17,0,0,1,29.87,12.4a1.152,1.152,0,0,1-1.152,1.152H12.36A1.152,1.152,0,0,1,11.208,12.4,1.17,1.17,0,0,1,12.36,11.249Zm0,6.543H28.718a1.152,1.152,0,0,1,0,2.3H12.36a1.152,1.152,0,0,1,0-2.3Zm0,6.543H28.718a1.152,1.152,0,0,1,1.152,1.152,1.17,1.17,0,0,1-1.152,1.152H12.36a1.17,1.17,0,0,1-1.152-1.152A1.152,1.152,0,0,1,12.36,24.336Zm12.6,8.847H12.36a1.152,1.152,0,0,1,0-2.3h12.6a1.152,1.152,0,0,1,0,2.3ZM35.469,44.634a6.417,6.417,0,1,1,6.405-6.428,6.417,6.417,0,0,1-6.405,6.428Zm1.152-9.873v3.456a1.152,1.152,0,0,1-.73,1.074l-2.115.827a1.129,1.129,0,0,1-.422.078,1.152,1.152,0,0,1-.419-2.226l1.382-.539v-2.67a1.152,1.152,0,1,1,2.3,0Z" transform="translate(-3.72 -2.955)" fill="#ff801e"/>
      </g>
    </g>
  </g>
</svg>
