<svg xmlns="http://www.w3.org/2000/svg" xmlns:xlink="http://www.w3.org/1999/xlink" width="53" height="37" viewBox="0 0 53 37">
  <defs>
    <clipPath id="clip-out_for_delivery">
      <rect width="53" height="37"/>
    </clipPath>
  </defs>
  <g id="out_for_delivery" clip-path="url(#clip-out_for_delivery)">
    <rect width="53" height="37" fill="rgba(255,255,255,0)"/>
    <g id="noun_Shipping_3849218" transform="translate(2 1.629)">
      <g id="Group_913" data-name="Group 913" transform="translate(0 0)">
        <path id="Path_2412" data-name="Path 2412" d="M40.171,18h7.193l2.1,2.79h-9.29ZM30.465,5.258H4.241a2.3,2.3,0,0,0-2.3,2.3V31.238a2.3,2.3,0,0,0,2.3,2.3h.606a6.239,6.239,0,0,1,12.266,0H32.78V7.562a2.3,2.3,0,0,0-2.315-2.3ZM14.915,34.689A3.917,3.917,0,1,1,13.768,31.9a3.94,3.94,0,0,1,1.147,2.793Zm-2.788,0a1.152,1.152,0,0,0-.323-.806,1.426,1.426,0,0,0-.392-.253,1.152,1.152,0,0,0-.876,0,1.053,1.053,0,0,0-.369.253,1.081,1.081,0,0,0-.346.806,1.17,1.17,0,0,0,.346.829,1.263,1.263,0,0,0,.806.323.935.935,0,0,0,.438-.092,1.348,1.348,0,0,0,.392-.23,1.251,1.251,0,0,0,.323-.829Zm33.385,0A3.938,3.938,0,1,1,44.359,31.9,3.94,3.94,0,0,1,45.512,34.689Zm-2.788,0a1,1,0,0,0-.092-.438,1.228,1.228,0,0,0-.622-.622,1.152,1.152,0,0,0-.876,0,1.426,1.426,0,0,0-.392.253,1.152,1.152,0,0,0-.323.806,1.251,1.251,0,0,0,.323.829,1.348,1.348,0,0,0,.392.23.935.935,0,0,0,.438.092,1.263,1.263,0,0,0,.806-.323,1.426,1.426,0,0,0,.253-.392A.935.935,0,0,0,42.724,34.689Zm6.49-6.246h1.4V23.649a4.054,4.054,0,0,0-.088-.553h-11.5a1.152,1.152,0,0,1-1.152-1.152V16.849A1.152,1.152,0,0,1,39.019,15.7h6.608L43.95,13.463a1.405,1.405,0,0,0-1.117-.558h-7.76V33.542h.362a6.239,6.239,0,0,1,12.266,0h1.514a1.4,1.4,0,0,0,1.4-1.4v-1.4h-1.4a1.152,1.152,0,0,1,0-2.3Z" transform="translate(-1.937 -5.258)" fill="#ff801e"/>
      </g>
    </g>
  </g>
</svg>
