<svg xmlns="http://www.w3.org/2000/svg" xmlns:xlink="http://www.w3.org/1999/xlink" width="43" height="44" viewBox="0 0 43 44">
  <defs>
    <clipPath id="clip-ready_to_ship">
      <rect width="43" height="44"/>
    </clipPath>
  </defs>
  <g id="ready_to_ship" clip-path="url(#clip-ready_to_ship)">
    <rect width="43" height="44" fill="rgba(255,255,255,0)"/>
    <g id="noun_Package_1886048" transform="translate(2.501 1.863)">
      <path id="Path_2408" data-name="Path 2408" d="M143.652,193.659c-.127.063-.253.122-.38.186q-2.484,1.194-4.967,2.393c-.665.321-1.339.615-2,.945h0c-.38-.181-.76-.362-1.135-.543-.127-.059-.253-.122-.38-.181l-4.008-1.927c-.244-.118-.488-.235-.737-.353-.48-.231-.959-.461-1.434-.692q-2.151-1.038-4.307-2.072-2.484-1.194-4.967-2.393c-.023-.014-.05-.023-.072-.036l-.226-.108c-.181-.086-.357-.176-.534-.262l.339-.163c1.583-.764,3.167-1.52,4.75-2.28.751-.362,1.5-.71,2.248-1.072h0c.6.271,1.208.57,1.809.864q2.375,1.14,4.745,2.285,2.87,1.384,5.745,2.764,2.484,1.194,4.972,2.393C143.29,193.487,143.471,193.573,143.652,193.659Z" transform="translate(-117.302 -180.034)" fill="#ff801e"/>
      <path id="Path_2409" data-name="Path 2409" d="M374.765,81.686c-.118.054-.231.113-.348.167,0,0-.009,0-.014,0l-4.745,2.285-2.244,1.081s-1.235-.6-1.809-.873q-2.375-1.14-4.745-2.284L355.115,79.3,350.143,76.9c-.181-.086-.362-.176-.543-.262.127-.059.249-.122.376-.181l4.972-2.393c.67-.321,1.353-.633,2.018-.968.5.244,1,.489,1.5.728,1.583.76,3.166,1.529,4.745,2.289l5.745,2.769,4.972,2.393.837.407Z" transform="translate(-337.947 -73.1)" fill="#ff801e"/>
      <path id="Path_2410" data-name="Path 2410" d="M110.095,322.7c0,.448,0,.9-.009,1.348l-.606-.294c-1.583-.76-3.167-1.529-4.745-2.289l-5.745-2.769L94.018,316.3c-.669-.321-1.339-.67-2.018-.982V296.135c0-.443.009-.891.018-1.335.213.1.425.2.638.308.633.3,1.262.606,1.9.914l2.845,1.371s.014,0,.018.009q2.891,1.391,5.781,2.787,2.47,1.194,4.944,2.384c.651.312,1.3.638,1.954.945Z" transform="translate(-92 -284.771)" fill="#ff801e"/>
      <path id="Path_2411" data-name="Path 2411" d="M532.009,303.208l7.681-3.691s-.009,4.365-.009,4.628a1.357,1.357,0,0,0,2.714,0c0-1.832,0-5.935,0-5.935l7.695-3.709-.014,20.547L532,323.75Z" transform="translate(-512.096 -284.485)" fill="#ff801e"/>
    </g>
  </g>
</svg>
