<svg xmlns="http://www.w3.org/2000/svg" xmlns:xlink="http://www.w3.org/1999/xlink" width="40" height="43" viewBox="0 0 40 43">
  <defs>
    <clipPath id="clip-settings">
      <rect width="40" height="43"/>
    </clipPath>
  </defs>
  <g id="settings" clip-path="url(#clip-settings)">
    <rect width="40" height="43" fill="rgba(255,255,255,0)"/>
    <g id="noun_Settings_1187809" transform="translate(0.623 2.108)">
      <path id="Path_2140" data-name="Path 2140" d="M38.266,15.012a1.551,1.551,0,0,0-.2-.357A3.524,3.524,0,0,0,35.149,13.3h-.2a1.814,1.814,0,0,1-1.551-.954.05.05,0,0,1-.054-.054c-.205-.357-.388-.651-.6-1.008a.05.05,0,0,1-.039-.047,1.876,1.876,0,0,1-.054-1.861.233.233,0,0,0,.1-.151,3.876,3.876,0,0,0,.295-3.314.9.9,0,0,0-.2-.357A24.955,24.955,0,0,0,30.772,3.8c-.1-.047-.205-.1-.349-.151a3.652,3.652,0,0,0-3.171.857.275.275,0,0,0-.143.1,1.624,1.624,0,0,1-1.089.388,1.837,1.837,0,0,1-.7-.151,7.993,7.993,0,0,0-1.136-.388A1.826,1.826,0,0,1,23,3.041a.973.973,0,0,0-.054-.2A3.562,3.562,0,0,0,21.062.13a.7.7,0,0,0-.345-.093,22.46,22.46,0,0,0-2.671,0,1.008,1.008,0,0,0-.349.1,3.686,3.686,0,0,0-1.884,2.76.174.174,0,0,0-.054.151,1.768,1.768,0,0,1-1.186,1.407c-.341.1-.74.248-1.136.388a3.651,3.651,0,0,1-.7.1,1.772,1.772,0,0,1-1.089-.388c-.047-.054-.1-.054-.143-.1a3.624,3.624,0,0,0-3.171-.857.508.508,0,0,0-.349.151A13.823,13.823,0,0,0,5.906,5.5a1.392,1.392,0,0,0-.2.357A3.741,3.741,0,0,0,6,9.166a1.035,1.035,0,0,1,.1.151,1.884,1.884,0,0,1-.054,1.861.05.05,0,0,0-.054.054,7.92,7.92,0,0,0-.566,1.008.05.05,0,0,0-.054.054,1.713,1.713,0,0,1-1.551.954h-.2A3.613,3.613,0,0,0,.7,14.608a.9.9,0,0,0-.2.357A19.459,19.459,0,0,0,0,17.779a1.047,1.047,0,0,0,.054.388,3.675,3.675,0,0,0,2.272,2.275,1.163,1.163,0,0,1,.2.054A1.709,1.709,0,0,1,3.657,21.9v.054a8.458,8.458,0,0,0,.2,1.163v.054a1.938,1.938,0,0,1-.6,1.756.275.275,0,0,0-.143.1A3.721,3.721,0,0,0,1.731,27.9a1.3,1.3,0,0,0,.1.388A21.8,21.8,0,0,0,3.312,30.85a.465.465,0,0,0,.3.3,3.586,3.586,0,0,0,3.1.2.229.229,0,0,0,.2-.054,1.787,1.787,0,0,1,.6-.1,1.814,1.814,0,0,1,.636.112,2.279,2.279,0,0,1,.6.341l.892.775.054.054a1.849,1.849,0,0,1,.643,1.7.357.357,0,0,0-.054.2,3.772,3.772,0,0,0,.7,3.062.977.977,0,0,0,.349.248,14.513,14.513,0,0,0,2.83,1.05.647.647,0,0,0,.446,0,3.609,3.609,0,0,0,2.473-1.861,1.035,1.035,0,0,0,.1-.151,1.632,1.632,0,0,1,1.589-.9H20a1.775,1.775,0,0,1,1.589.9,1.035,1.035,0,0,1,.1.151,3.6,3.6,0,0,0,2.473,1.861h.2c.054,0,.143,0,.081-.1a26.746,26.746,0,0,0,2.822-1.058.915.915,0,0,0,.349-.248,3.45,3.45,0,0,0,.81-2.256,3.694,3.694,0,0,0-.07-.705.628.628,0,0,0-.054-.3,1.791,1.791,0,0,1,.7-1.655.055.055,0,1,1,.078-.078,7.078,7.078,0,0,0,.892-.775h.054a1.741,1.741,0,0,1,1.186-.454,1.628,1.628,0,0,1,.43.054.775.775,0,0,1,.167.054,1.163,1.163,0,0,1,.2.054,4.09,4.09,0,0,0,.651.182,3.543,3.543,0,0,0,.69.07,3.621,3.621,0,0,0,1.787-.454l.3-.3A14.42,14.42,0,0,0,36.913,28.2a.9.9,0,0,0,.1-.388,3.807,3.807,0,0,0-1.384-2.869c-.047-.047-.1-.1-.143-.151a1.706,1.706,0,0,1-.6-1.551v-.058a8.664,8.664,0,0,0,.2-1.163v-.043a1.633,1.633,0,0,1,1.14-1.434.229.229,0,0,0,.213-.07,3.636,3.636,0,0,0,2.26-2.256,1.047,1.047,0,0,0,.054-.388A17.468,17.468,0,0,0,38.266,15.012ZM19.38,27.563a7.908,7.908,0,1,1,5.608-2.348A7.958,7.958,0,0,1,19.38,27.563Z" transform="translate(0.003 0.003)" fill="#ff801e"/>
    </g>
  </g>
</svg>
