<svg xmlns="http://www.w3.org/2000/svg" xmlns:xlink="http://www.w3.org/1999/xlink" width="25" height="25" viewBox="0 0 25 25">
  <defs>
    <clipPath id="clip-star">
      <rect width="25" height="25"/>
    </clipPath>
  </defs>
  <g id="star" clip-path="url(#clip-star)">
    <rect width="25" height="25" fill="rgba(255,255,255,0)"/>
    <g id="noun_Star_3853704" transform="translate(-2.875 -3.601)">
      <path id="Path_3975" data-name="Path 3975" d="M16.475,5.869,19.216,10.9a1.19,1.19,0,0,0,.875.633l5.631,1.059a1.225,1.225,0,0,1,.967.84,1.26,1.26,0,0,1-.288,1.255l-3.938,4.157a1.242,1.242,0,0,0-.334,1.025l.737,5.677a1.2,1.2,0,0,1-.507,1.186,1.221,1.221,0,0,1-1.278.115l-5.17-2.464a1.245,1.245,0,0,0-1.071,0L9.658,26.849a1.223,1.223,0,0,1-1.278-.115,1.247,1.247,0,0,1-.507-1.186l.749-5.677a1.244,1.244,0,0,0-.334-1.025L4.35,14.689a1.259,1.259,0,0,1-.288-1.255,1.227,1.227,0,0,1,.967-.84l5.631-1.059a1.21,1.21,0,0,0,.875-.633l2.741-5.032a1.2,1.2,0,0,1,1.094-.645,1.216,1.216,0,0,1,1.106.645Z" fill="#ff801e" fill-rule="evenodd"/>
    </g>
  </g>
</svg>
