<svg xmlns="http://www.w3.org/2000/svg" xmlns:xlink="http://www.w3.org/1999/xlink" width="23" height="24" viewBox="0 0 23 24">
  <defs>
    <clipPath id="clip-add_to_cart_1">
      <rect width="23" height="24"/>
    </clipPath>
  </defs>
  <g id="add_to_cart_1" clip-path="url(#clip-add_to_cart_1)">
    <rect width="23" height="24" fill="rgba(255,255,255,0)"/>
    <g id="shopping-cart" transform="translate(2 3)">
      <g id="Group_679" data-name="Group 679" transform="translate(12.639 14.188)">
        <g id="Group_678" data-name="Group 678" transform="translate(0 0)">
          <path id="Path_2020" data-name="Path 2020" d="M294.654,338.862a2.3,2.3,0,1,0,2.3,2.3A2.329,2.329,0,0,0,294.654,338.862Z" transform="translate(-292.352 -338.862)" fill="#ffbc4e"/>
        </g>
      </g>
      <g id="Group_681" data-name="Group 681" transform="translate(0 0)">
        <g id="Group_680" data-name="Group 680" transform="translate(0 0)">
          <path id="Path_2021" data-name="Path 2021" d="M18.992,13.88c-.044,0-.111-.022-.177-.022H4.87l-.221-1.483a1.982,1.982,0,0,0-1.97-1.7H.885a.885.885,0,0,0,0,1.771H2.678a.235.235,0,0,1,.221.2l1.372,9.341a2.427,2.427,0,0,0,2.391,2.059h9.208a2.46,2.46,0,0,0,2.391-1.948L19.7,14.9A.875.875,0,0,0,18.992,13.88Z" transform="translate(0 -10.67)" fill="#ffbc4e"/>
        </g>
      </g>
      <g id="Group_683" data-name="Group 683" transform="translate(4.802 14.188)">
        <g id="Group_682" data-name="Group 682" transform="translate(0 0)">
          <path id="Path_2022" data-name="Path 2022" d="M115.565,341.053a2.289,2.289,0,0,0-2.28-2.191,2.315,2.315,0,0,0-2.213,2.391,2.269,2.269,0,0,0,2.258,2.191h.044A2.3,2.3,0,0,0,115.565,341.053Z" transform="translate(-111.07 -338.862)" fill="#ffbc4e"/>
        </g>
      </g>
    </g>
  </g>
</svg>
