<svg xmlns="http://www.w3.org/2000/svg" width="19" height="25.116" viewBox="0 0 19 25.116">
  <g id="location" transform="translate(-25.338 -17.997)">
    <path id="Path_2143" data-name="Path 2143" d="M44.188,25.684a9.514,9.514,0,0,0-18.849,1.57,9.834,9.834,0,0,0,1.221,4.436A58.165,58.165,0,0,0,33.448,42.2c.95,1.217,1.894,1.217,2.823-.036,1.516-2.047,3.022-4.1,4.453-6.219a27.3,27.3,0,0,0,3.1-5.891A8.049,8.049,0,0,0,44.188,25.684Zm-9.316,6.052a4.222,4.222,0,1,1,4.2-4.2,4.222,4.222,0,0,1-4.2,4.2Z" transform="translate(0 0)" fill="#fff"/>
  </g>
</svg>
