<svg xmlns="http://www.w3.org/2000/svg" width="19.18" height="19.171" viewBox="0 0 19.18 19.171">
  <g id="offer" transform="translate(-27.882 -28.036)">
    <path id="Path_3986" data-name="Path 3986" d="M46.8,39.171c-.232-.4-.466-.809-.7-1.215a.675.675,0,0,1,0-.66c.03-.054.059-.105.089-.157.145-.254.291-.505.436-.759.1-.172.2-.345.3-.519a1.067,1.067,0,0,0-.164-1.266,2.593,2.593,0,0,0-.549-.359l-.8-.458a1.558,1.558,0,0,1-.519-.365,1.059,1.059,0,0,1-.127-.664v-.91a4.456,4.456,0,0,0-.014-.63,1.054,1.054,0,0,0-.941-.874,5.827,5.827,0,0,0-.589,0h-.9a.966.966,0,0,1-.664-.147,1.844,1.844,0,0,1-.355-.525q-.229-.4-.458-.795a2.118,2.118,0,0,0-.381-.557,1.066,1.066,0,0,0-1.231-.129c-.434.244-.864.5-1.294.745-.055.032-.109.065-.164.093A.668.668,0,0,1,37.143,29c-.174-.1-.345-.2-.519-.3-.254-.145-.505-.291-.759-.438a1.264,1.264,0,0,0-.8-.222,1.1,1.1,0,0,0-.822.579l-.392.68c-.125.218-.252.436-.377.654a.693.693,0,0,1-.624.373c-.507,0-1.015,0-1.524,0a1.123,1.123,0,0,0-.872.343,1.078,1.078,0,0,0-.272.638c-.006.065,0,.133,0,.2,0,.5.006,1,0,1.5a.707.707,0,0,1-.4.622l-.684.394-.648.375a1.077,1.077,0,0,0-.561.908,1.4,1.4,0,0,0,.254.743c.151.26.3.521.45.783.1.168.212.337.293.513a.671.671,0,0,1-.032.6c-.032.057-.065.115-.1.17-.242.42-.49.838-.727,1.26a1.059,1.059,0,0,0,.194,1.292,3.117,3.117,0,0,0,.551.349l.795.458a1.32,1.32,0,0,1,.513.384,1.174,1.174,0,0,1,.1.66v.914a3.567,3.567,0,0,0,.02.634,1.055,1.055,0,0,0,.987.838c.19.008.381,0,.571,0h.888a.891.891,0,0,1,.684.184,2.268,2.268,0,0,1,.329.517c.151.262.3.525.454.787a1.883,1.883,0,0,0,.408.569,1.063,1.063,0,0,0,1.2.091c.19-.107.379-.218.567-.327l.743-.428a2,2,0,0,1,.18-.1.675.675,0,0,1,.6.036c.434.244.864.5,1.294.747.05.028.1.057.147.085a1.071,1.071,0,0,0,.711.115,1.1,1.1,0,0,0,.751-.579c.256-.444.511-.89.769-1.334a.694.694,0,0,1,.626-.363h1.534a1.094,1.094,0,0,0,.878-.371,1.069,1.069,0,0,0,.248-.664c0-.055,0-.113,0-.168v-.866c0-.206,0-.412,0-.618a.665.665,0,0,1,.2-.482.994.994,0,0,1,.208-.143c.444-.256.888-.509,1.33-.767a1.068,1.068,0,0,0,.553-.939A1.43,1.43,0,0,0,46.8,39.171Zm-13.4-4.33a1.756,1.756,0,0,1,.555-.9,1.922,1.922,0,0,1,1.064-.446,1.8,1.8,0,0,1,1.746,1,1.9,1.9,0,0,1,.153,1.151,1.758,1.758,0,0,1-.472.906h0l-.02.02-.026.026a1.807,1.807,0,0,1-3-1.754Zm3.494,4.192L35.419,40.5l-.612.612a.577.577,0,0,1-.817-.817l.01-.01c.244-.254.5-.5.749-.749L36.287,38l1.778-1.778,1.469-1.469.612-.612a.577.577,0,0,1,.817.817l-.01.01c-.244.254-.5.5-.749.749l-1.538,1.538Zm4.695,1.276a1.75,1.75,0,0,1-.472.906h0l-.02.02-.026.026a1.8,1.8,0,0,1-3-1.754,1.756,1.756,0,0,1,.555-.9,1.9,1.9,0,0,1,1.064-.446,1.8,1.8,0,0,1,1.746,1A1.947,1.947,0,0,1,41.583,40.308Z" transform="translate(0 0)" fill="#fff"/>
    <path id="Path_3987" data-name="Path 3987" d="M363.041,362.382h0a1.63,1.63,0,0,1-.046.168,1.2,1.2,0,0,1-.073.129l-.006.01h0c-.02.022-.04.044-.061.065s-.044.042-.065.061h0l-.01.006a1.2,1.2,0,0,1-.129.073,1.3,1.3,0,0,1-.167.046h0a1.279,1.279,0,0,1-.174,0h0a1.458,1.458,0,0,1-.166-.046,1.2,1.2,0,0,1-.129-.073l-.01-.006c-.022-.02-.044-.04-.065-.061s-.042-.044-.061-.065h0a.043.043,0,0,1-.006-.01,1.2,1.2,0,0,1-.073-.129,1.31,1.31,0,0,1-.046-.166h0a1.279,1.279,0,0,1,0-.174h0a1.479,1.479,0,0,1,.046-.166,1.2,1.2,0,0,1,.073-.129.042.042,0,0,1,.006-.01c.02-.022.04-.044.061-.065s.044-.042.065-.061l.01-.006a1.2,1.2,0,0,1,.129-.073,1.3,1.3,0,0,1,.166-.046h0a1.279,1.279,0,0,1,.174,0h0a1.473,1.473,0,0,1,.167.046,1.2,1.2,0,0,1,.129.073l.01.006.065.059c.022.022.042.044.061.065l.006.01a1.2,1.2,0,0,1,.073.129,1.305,1.305,0,0,1,.046.166h0A1.279,1.279,0,0,1,363.041,362.382Z" transform="translate(-327.251 -327.003)" fill="#fff"/>
    <path id="Path_3988" data-name="Path 3988" d="M598.641,597.784h0a1.6,1.6,0,0,1-.046.168,1.2,1.2,0,0,1-.073.129l-.006.01h0c-.02.022-.04.046-.061.065s-.044.042-.065.061h0l-.01.006a1.163,1.163,0,0,1-.127.073,1.242,1.242,0,0,1-.168.046h0a1.279,1.279,0,0,1-.174,0h0a1.628,1.628,0,0,1-.168-.046,1,1,0,0,1-.127-.073l-.01-.006h0c-.022-.02-.046-.04-.065-.061s-.042-.044-.061-.065l-.006-.01a1.033,1.033,0,0,1-.073-.129,1.253,1.253,0,0,1-.046-.168h0a1.28,1.28,0,0,1,0-.174h0a1.652,1.652,0,0,1,.046-.168,1.183,1.183,0,0,1,.073-.129.044.044,0,0,1,.006-.01c.02-.022.04-.044.061-.065s.044-.04.065-.059l.01-.006a1.152,1.152,0,0,1,.127-.073,1.26,1.26,0,0,1,.168-.046h0a1.3,1.3,0,0,1,.174,0h0a1.659,1.659,0,0,1,.168.046,1,1,0,0,1,.127.073l.01.006.065.059c.022.022.042.044.061.065l.006.01a1.027,1.027,0,0,1,.073.129,1.238,1.238,0,0,1,.046.168h0A1.28,1.28,0,0,1,598.641,597.784Z" transform="translate(-558.182 -557.737)" fill="#fff"/>
  </g>
</svg>
