<svg xmlns="http://www.w3.org/2000/svg" xmlns:xlink="http://www.w3.org/1999/xlink" width="161" height="197" viewBox="0 0 161 197">
  <defs>
    <linearGradient id="linear-gradient" x1="0.187" y1="0.359" x2="1.148" y2="0.646" gradientUnits="objectBoundingBox">
      <stop offset="0" stop-color="#fcb37e"/>
      <stop offset="0.156" stop-color="#f3ac78"/>
      <stop offset="0.412" stop-color="#da9a69"/>
      <stop offset="0.735" stop-color="#b27e50"/>
      <stop offset="1" stop-color="#8c6239"/>
    </linearGradient>
    <linearGradient id="linear-gradient-2" x1="-0.007" y1="0.407" x2="0.945" y2="0.702" xlink:href="#linear-gradient"/>
    <linearGradient id="linear-gradient-3" x1="0.252" y1="0.305" x2="0.978" y2="0.957" xlink:href="#linear-gradient"/>
    <linearGradient id="linear-gradient-4" x1="0.475" y1="0.404" x2="0.714" y2="0.704" gradientUnits="objectBoundingBox">
      <stop offset="0" stop-color="#f8f6fb"/>
      <stop offset="1" stop-color="#efdcfb"/>
    </linearGradient>
    <linearGradient id="linear-gradient-5" x1="0.5" y1="0.568" x2="0.5" y2="0.99" xlink:href="#linear-gradient-4"/>
    <linearGradient id="linear-gradient-6" x1="0.5" y1="0.45" x2="0.5" y2="0.872" gradientUnits="objectBoundingBox">
      <stop offset="0" stop-color="#ff819c"/>
      <stop offset="0.259" stop-color="#ff7e9a"/>
      <stop offset="0.476" stop-color="#fe7396"/>
      <stop offset="0.677" stop-color="#fc628e"/>
      <stop offset="0.867" stop-color="#fa4a83"/>
      <stop offset="1" stop-color="#f83479"/>
    </linearGradient>
    <linearGradient id="linear-gradient-7" x1="0.487" y1="0.26" x2="0.715" y2="0.942" xlink:href="#linear-gradient-4"/>
    <linearGradient id="linear-gradient-8" x1="0.388" y1="0.194" x2="0.635" y2="0.868" xlink:href="#linear-gradient-4"/>
    <linearGradient id="linear-gradient-9" x1="0.621" y1="0.609" x2="0.197" y2="-0.776" gradientUnits="objectBoundingBox">
      <stop offset="0" stop-color="#efdcfb" stop-opacity="0"/>
      <stop offset="0.486" stop-color="#baaad6" stop-opacity="0.486"/>
      <stop offset="1" stop-color="#8679b2"/>
    </linearGradient>
    <radialGradient id="radial-gradient" cx="0.349" cy="0.158" r="0.872" gradientTransform="translate(0.131) scale(0.737 1)" gradientUnits="objectBoundingBox">
      <stop offset="0" stop-color="#8a7889"/>
      <stop offset="0.364" stop-color="#877586"/>
      <stop offset="0.675" stop-color="#7f6a7e"/>
      <stop offset="0.967" stop-color="#705970"/>
      <stop offset="1" stop-color="#6e566e"/>
    </radialGradient>
    <linearGradient id="linear-gradient-10" x1="0.313" y1="0.313" x2="0.961" y2="0.96" gradientUnits="objectBoundingBox">
      <stop offset="0" stop-color="#8a7889"/>
      <stop offset="1" stop-color="#6e566e"/>
    </linearGradient>
    <linearGradient id="linear-gradient-11" x1="0.49" y1="0.674" x2="1.216" y2="-0.675" gradientUnits="objectBoundingBox">
      <stop offset="0" stop-color="#6e566e" stop-opacity="0"/>
      <stop offset="0.047" stop-color="#6e566e" stop-opacity="0.047"/>
      <stop offset="1" stop-color="#6e566e"/>
    </linearGradient>
  </defs>
  <g id="Group_6021" data-name="Group 6021" transform="translate(-159 -208)">
    <circle id="Ellipse_453" data-name="Ellipse 453" cx="80.5" cy="80.5" r="80.5" transform="translate(159 208)" fill="rgba(255,30,30,0.85)"/>
    <text id="Dogs_N_Pups" data-name="Dogs&apos;N&apos;Pups" transform="translate(171 398)" fill="#32292d" font-size="24" font-family="ComicSansMS-Bold, Comic Sans MS" font-weight="700"><tspan x="0" y="0">Dogs</tspan><tspan y="0" font-size="19">&apos;</tspan><tspan y="0" fill="#c91f3c" font-size="19">N</tspan><tspan y="0" font-size="19">&apos;</tspan><tspan y="0">Pups</tspan></text>
    <g id="dog" transform="translate(186.302 245.671)">
      <path id="Path_2064" data-name="Path 2064" d="M25.781,143.5l-10.915-.1C4.576,143.3-2.1,134.26.6,124.064L7.4,98.322c2.386-9.03,11.057-15.772,20.17-15.684l7.138.069Z" transform="translate(0.001 -75.633)" fill="url(#linear-gradient)"/>
      <path id="Path_2065" data-name="Path 2065" d="M357.978,145.716l10.915.1c10.29.1,17.134-8.812,14.636-19.057L377.223,100.9c-2.212-9.074-10.751-15.982-19.865-16.07l-7.137-.069Z" transform="translate(-276.083 -77.304)" fill="url(#linear-gradient-2)"/>
      <path id="Path_2066" data-name="Path 2066" d="M138.146,135.9h-22.51A23.337,23.337,0,0,1,92.3,112.56V92.816a34.486,34.486,0,0,1,10.312-24.639c6.245-6.155,14.819-7.625,24.281-7.625,9.307,0,17.754,1.347,23.972,7.324a34.492,34.492,0,0,1,10.62,24.939V112.56A23.337,23.337,0,0,1,138.146,135.9Z" transform="translate(-72.76 -58.223)" fill="url(#linear-gradient-3)"/>
      <path id="Path_2067" data-name="Path 2067" d="M184.259,59.683q.667.667,1.294,1.367c-.177-.2-.357-.391-.539-.585A21.832,21.832,0,0,0,169.1,53.626a4.765,4.765,0,0,0-4.765,4.765V69.274a4.534,4.534,0,1,1-9.068,0V58.391a4.765,4.765,0,0,0-4.765-4.765,21.831,21.831,0,0,0-15.917,6.839c-.182.194-.362.389-.539.585a34.522,34.522,0,0,1,21.221-11.206,35.131,35.131,0,0,1,9.068,0A34.49,34.49,0,0,1,184.259,59.683Z" transform="translate(-105.667 -49.551)" fill="url(#linear-gradient-4)"/>
      <circle id="Ellipse_451" data-name="Ellipse 451" cx="10.807" cy="10.807" r="10.807" transform="translate(43.324 65.368)" fill="url(#linear-gradient-5)"/>
      <circle id="Ellipse_452" data-name="Ellipse 452" cx="6.551" cy="6.551" r="6.551" transform="translate(47.581 69.625)" fill="url(#linear-gradient-6)"/>
      <g id="Group_732" data-name="Group 732" transform="translate(14.701 53.043)">
        <path id="Path_2068" data-name="Path 2068" d="M92.482,332.9H85.836a16.392,16.392,0,0,1,0-32.785h23.038v16.392A16.392,16.392,0,0,1,92.482,332.9Z" transform="translate(-69.444 -300.119)" fill="url(#linear-gradient-7)"/>
        <path id="Path_2069" data-name="Path 2069" d="M272.1,332.9h6.646a16.392,16.392,0,0,0,0-32.785H255.709v16.392A16.392,16.392,0,0,0,272.1,332.9Z" transform="translate(-216.279 -300.119)" fill="url(#linear-gradient-8)"/>
      </g>
      <path id="Path_2070" data-name="Path 2070" d="M261.673,316.514a16.388,16.388,0,0,1-16.393,16.391h-1.117l-29.887-29.887a3.467,3.467,0,0,1-.993-2.9h32a16.393,16.393,0,0,1,16.393,16.393Z" transform="translate(-168.111 -247.078)" fill="url(#linear-gradient-9)"/>
      <path id="Path_2071" data-name="Path 2071" d="M230.208,278.24a11.266,11.266,0,0,0-15.932,0,3.485,3.485,0,0,0,0,4.929l2.937,2.937a7.112,7.112,0,0,0,10.059,0l2.937-2.937A3.485,3.485,0,0,0,230.208,278.24Z" transform="translate(-168.111 -227.228)" fill="url(#radial-gradient)"/>
      <g id="Group_735" data-name="Group 735" transform="translate(31.172 36.332)">
        <g id="Group_733" data-name="Group 733">
          <path id="Path_2072" data-name="Path 2072" d="M157.444,226.275a5.1,5.1,0,1,1-5.1-5.1A5.1,5.1,0,0,1,157.444,226.275Z" transform="translate(-147.253 -221.18)" fill="url(#linear-gradient-10)"/>
          <path id="Path_2073" data-name="Path 2073" d="M156.63,223.718a5.1,5.1,0,0,1-6.837,6.837,5.1,5.1,0,1,0,6.837-6.837Z" transform="translate(-149.255 -223.181)" fill="url(#linear-gradient-11)"/>
        </g>
        <g id="Group_734" data-name="Group 734" transform="translate(35.727)">
          <path id="Path_2074" data-name="Path 2074" d="M326.216,226.275a5.1,5.1,0,1,1-5.1-5.1A5.1,5.1,0,0,1,326.216,226.275Z" transform="translate(-316.025 -221.18)" fill="url(#linear-gradient-10)"/>
          <path id="Path_2075" data-name="Path 2075" d="M325.4,223.718a5.1,5.1,0,0,1-6.837,6.837,5.1,5.1,0,1,0,6.837-6.837Z" transform="translate(-318.026 -223.181)" fill="url(#linear-gradient-11)"/>
        </g>
      </g>
    </g>
  </g>
</svg>
